<?xml version="1.0" encoding="UTF-8"?><svg id="a" xmlns="http://www.w3.org/2000/svg" xmlns:xlink="http://www.w3.org/1999/xlink" viewBox="0 0 339.43 371.18"><defs><style>.c{fill:#fff;stroke:#fff;stroke-miterlimit:10;stroke-width:11px;}.d{fill:#2991bf;}.e{clip-path:url(#b);}.f{fill:none;}</style><clipPath id="b"><ellipse class="f" cx="169.71" cy="185.18" rx="169.71" ry="175.15"/></clipPath></defs><ellipse class="d" cx="169.71" cy="185.18" rx="169.71" ry="175.15"/><g class="e"><path class="c" d="M250.73,341.12s45.65-51.24,46.69-150.57c1.21-115.63-65.42-181.6-65.42-181.6h0l16.01-.26s59.35,58.46,59.35,181.85c0,114.35-59.54,171.11-59.54,171.11-35.93-86.79-38.22-93.37-71.91-171.11C150.92,132.9,90.75,29.68,90.75,29.68c0,0-47.49,66.29-46.43,160.88,1.34,119.69,65.59,171.11,65.59,171.11h-16.27s-56.52-43.44-59.26-171.11C31.76,69.01,93.7,8.96,93.7,8.96c0,0,70.97,128.66,95.83,181.65,26.12,55.67,61.21,150.51,61.21,150.51Z"/></g></svg>